<svg id="new" xmlns="http://www.w3.org/2000/svg" width="595" height="595" viewBox="0 0 595 595">
  <defs>
    <style>
      .cls-1 {
        fill: #fff;
        fill-rule: evenodd;
      }
    </style>
  </defs>
  <path id="Фигура_14" data-name="Фигура 14" class="cls-1" d="M35.458,163.283l-4.329-9.014L297.542,16.717l4.329,9.014Z"/>
  <path id="Фигура_14-2" data-name="Фигура 14" class="cls-1" d="M560.542,163.283l4.329-9.014L297.458,16.717l-4.329,9.014Z"/>
  <path id="Фигура_14-3" data-name="Фигура 14" class="cls-1" d="M35.458,432.717l-4.329,9.014L297.542,579.283l4.329-9.014Z"/>
  <path id="Фигура_14-4" data-name="Фигура 14" class="cls-1" d="M560.542,432.717l4.329,9.014L297.458,579.283l-4.329-9.014Z"/>
  <path id="Фигура_15" data-name="Фигура 15" class="cls-1" d="M31,155H41V441H31V155Z"/>
  <path id="Фигура_15-2" data-name="Фигура 15" class="cls-1" d="M374.614,434.487l8.81,4.732-83.33,136.956-8.81-4.732Z"/>
  <path id="Фигура_15-3" data-name="Фигура 15" class="cls-1" d="M471.816,190.9l9.456,3.254L383.184,439.582l-9.456-3.255Z"/>
  <path id="Фигура_15-4" data-name="Фигура 15" class="cls-1" d="M104.114,262.541l4.757-8.8L383.438,430.8l-4.758,8.8Z"/>
  <path id="Фигура_15-5" data-name="Фигура 15" class="cls-1" d="M559.168,431l0.048,10-180-.646-0.048-10Z"/>
  <path id="Фигура_15-6" data-name="Фигура 15" class="cls-1" d="M473.188,193.352l9.428-3.333,81.322,243.648L554.509,437Z"/>
  <path id="Фигура_15-7" data-name="Фигура 15" class="cls-1" d="M559.219,153.011L563,162.268l-86.747,37.19-3.783-9.257Z"/>
  <path id="Фигура_15-8" data-name="Фигура 15" class="cls-1" d="M477,189.8l1.775,9.842L107.316,263.4l-1.775-9.841Z"/>
  <path id="Фигура_15-9" data-name="Фигура 15" class="cls-1" d="M290.768,28.176l6.732-7.395L483.983,192.319l-6.732,7.4Z"/>
  <path id="Фигура_15-10" data-name="Фигура 15" class="cls-1" d="M555,155h10V441H555V155Z"/>
  <path id="Фигура_15-11" data-name="Фигура 15" class="cls-1" d="M32.573,162.693l8.376-5.462,71.225,99.561-8.377,5.463Z"/>
  <path id="Фигура_15-12" data-name="Фигура 15" class="cls-1" d="M103.453,253.561l9.192,3.939L42,442.382l-9.192-3.938Z"/>
  <path id="Фигура_15-13" data-name="Фигура 15" class="cls-1" d="M103.98,262.289l8.656-5.008L301.844,567.844l-8.656,5.007Z"/>
  <path id="Фигура_16" data-name="Фигура 16" class="cls-1" d="M293.447,20.778l8.387,5.446L108.293,262.5l-8.387-5.446Z"/>
</svg>
